<mxfile host="app.diagrams.net" agent="Mozilla/5.0 (Windows NT 10.0; Win64; x64) AppleWebKit/537.36 (KHTML, like Gecko) Chrome/130.0.0.0 Safari/537.36" version="24.8.6">
  <diagram name="Página-1" id="lEu9HL5IDDPlTQoNG6HE">
    <mxGraphModel grid="1" page="1" gridSize="10" guides="1" tooltips="1" connect="1" arrows="1" fold="1" pageScale="1" pageWidth="827" pageHeight="1169" math="0" shadow="0">
      <root>
        <mxCell id="0" />
        <mxCell id="1" parent="0" />
        <mxCell id="u1Fv49Q-y5gmyA9K3fSe-1" value="MECÂNICA" style="swimlane;fontStyle=0;childLayout=stackLayout;horizontal=1;startSize=26;fillColor=none;horizontalStack=0;resizeParent=1;resizeParentMax=0;resizeLast=0;collapsible=1;marginBottom=0;whiteSpace=wrap;html=1;" vertex="1" parent="1">
          <mxGeometry x="310" y="550" width="240" height="78" as="geometry" />
        </mxCell>
        <mxCell id="u1Fv49Q-y5gmyA9K3fSe-19" value="codigo INT" style="text;strokeColor=none;fillColor=none;align=left;verticalAlign=top;spacingLeft=4;spacingRight=4;overflow=hidden;rotatable=0;points=[[0,0.5],[1,0.5]];portConstraint=eastwest;whiteSpace=wrap;html=1;" vertex="1" parent="u1Fv49Q-y5gmyA9K3fSe-1">
          <mxGeometry y="26" width="240" height="26" as="geometry" />
        </mxCell>
        <mxCell id="u1Fv49Q-y5gmyA9K3fSe-2" value="especialidade VARCHAR(100)" style="text;strokeColor=none;fillColor=none;align=left;verticalAlign=top;spacingLeft=4;spacingRight=4;overflow=hidden;rotatable=0;points=[[0,0.5],[1,0.5]];portConstraint=eastwest;whiteSpace=wrap;html=1;" vertex="1" parent="u1Fv49Q-y5gmyA9K3fSe-1">
          <mxGeometry y="52" width="240" height="26" as="geometry" />
        </mxCell>
        <mxCell id="u1Fv49Q-y5gmyA9K3fSe-5" value="CLIENTE" style="swimlane;fontStyle=0;childLayout=stackLayout;horizontal=1;startSize=26;fillColor=none;horizontalStack=0;resizeParent=1;resizeParentMax=0;resizeLast=0;collapsible=1;marginBottom=0;whiteSpace=wrap;html=1;" vertex="1" parent="1">
          <mxGeometry x="530" y="880" width="210" height="78" as="geometry" />
        </mxCell>
        <mxCell id="u1Fv49Q-y5gmyA9K3fSe-6" value="nome VARCHAR(100)" style="text;strokeColor=none;fillColor=none;align=left;verticalAlign=top;spacingLeft=4;spacingRight=4;overflow=hidden;rotatable=0;points=[[0,0.5],[1,0.5]];portConstraint=eastwest;whiteSpace=wrap;html=1;" vertex="1" parent="u1Fv49Q-y5gmyA9K3fSe-5">
          <mxGeometry y="26" width="210" height="26" as="geometry" />
        </mxCell>
        <mxCell id="u1Fv49Q-y5gmyA9K3fSe-7" value="cpf int(11)" style="text;strokeColor=none;fillColor=none;align=left;verticalAlign=top;spacingLeft=4;spacingRight=4;overflow=hidden;rotatable=0;points=[[0,0.5],[1,0.5]];portConstraint=eastwest;whiteSpace=wrap;html=1;" vertex="1" parent="u1Fv49Q-y5gmyA9K3fSe-5">
          <mxGeometry y="52" width="210" height="26" as="geometry" />
        </mxCell>
        <mxCell id="u1Fv49Q-y5gmyA9K3fSe-9" value="OS" style="swimlane;fontStyle=0;childLayout=stackLayout;horizontal=1;startSize=26;fillColor=none;horizontalStack=0;resizeParent=1;resizeParentMax=0;resizeLast=0;collapsible=1;marginBottom=0;whiteSpace=wrap;html=1;" vertex="1" parent="1">
          <mxGeometry x="160" y="680" width="170" height="183" as="geometry" />
        </mxCell>
        <mxCell id="u1Fv49Q-y5gmyA9K3fSe-10" value="dataEntrega INT" style="text;strokeColor=none;fillColor=none;align=left;verticalAlign=top;spacingLeft=4;spacingRight=4;overflow=hidden;rotatable=0;points=[[0,0.5],[1,0.5]];portConstraint=eastwest;whiteSpace=wrap;html=1;" vertex="1" parent="u1Fv49Q-y5gmyA9K3fSe-9">
          <mxGeometry y="26" width="170" height="26" as="geometry" />
        </mxCell>
        <mxCell id="u1Fv49Q-y5gmyA9K3fSe-11" value="valorServiço INT" style="text;strokeColor=none;fillColor=none;align=left;verticalAlign=top;spacingLeft=4;spacingRight=4;overflow=hidden;rotatable=0;points=[[0,0.5],[1,0.5]];portConstraint=eastwest;whiteSpace=wrap;html=1;" vertex="1" parent="u1Fv49Q-y5gmyA9K3fSe-9">
          <mxGeometry y="52" width="170" height="26" as="geometry" />
        </mxCell>
        <mxCell id="u1Fv49Q-y5gmyA9K3fSe-12" value="numeroOS&amp;nbsp; INT" style="text;strokeColor=none;fillColor=none;align=left;verticalAlign=top;spacingLeft=4;spacingRight=4;overflow=hidden;rotatable=0;points=[[0,0.5],[1,0.5]];portConstraint=eastwest;whiteSpace=wrap;html=1;" vertex="1" parent="u1Fv49Q-y5gmyA9K3fSe-9">
          <mxGeometry y="78" width="170" height="26" as="geometry" />
        </mxCell>
        <mxCell id="u1Fv49Q-y5gmyA9K3fSe-3" value="dataEmissão INT" style="text;strokeColor=none;fillColor=none;align=left;verticalAlign=top;spacingLeft=4;spacingRight=4;overflow=hidden;rotatable=0;points=[[0,0.5],[1,0.5]];portConstraint=eastwest;whiteSpace=wrap;html=1;" vertex="1" parent="u1Fv49Q-y5gmyA9K3fSe-9">
          <mxGeometry y="104" width="170" height="26" as="geometry" />
        </mxCell>
        <mxCell id="g5kQkEdZW5p_jmDrtVGw-1" value="dataConclusaotrabalho INT" style="text;strokeColor=none;fillColor=none;align=left;verticalAlign=top;spacingLeft=4;spacingRight=4;overflow=hidden;rotatable=0;points=[[0,0.5],[1,0.5]];portConstraint=eastwest;whiteSpace=wrap;html=1;" vertex="1" parent="u1Fv49Q-y5gmyA9K3fSe-9">
          <mxGeometry y="130" width="170" height="26" as="geometry" />
        </mxCell>
        <mxCell id="u1Fv49Q-y5gmyA9K3fSe-4" value="statusOS&amp;nbsp; VARCHAR(100)" style="text;strokeColor=none;fillColor=none;align=left;verticalAlign=top;spacingLeft=4;spacingRight=4;overflow=hidden;rotatable=0;points=[[0,0.5],[1,0.5]];portConstraint=eastwest;whiteSpace=wrap;html=1;" vertex="1" parent="u1Fv49Q-y5gmyA9K3fSe-9">
          <mxGeometry y="156" width="170" height="27" as="geometry" />
        </mxCell>
        <mxCell id="u1Fv49Q-y5gmyA9K3fSe-14" value="VEÍCULOS" style="swimlane;fontStyle=0;childLayout=stackLayout;horizontal=1;startSize=26;fillColor=none;horizontalStack=0;resizeParent=1;resizeParentMax=0;resizeLast=0;collapsible=1;marginBottom=0;whiteSpace=wrap;html=1;" vertex="1" parent="1">
          <mxGeometry x="540" y="800" width="210" height="20" as="geometry" />
        </mxCell>
        <mxCell id="g5kQkEdZW5p_jmDrtVGw-40" style="edgeStyle=orthogonalEdgeStyle;rounded=0;orthogonalLoop=1;jettySize=auto;html=1;entryX=0.5;entryY=0;entryDx=0;entryDy=0;" edge="1" parent="1" source="u1Fv49Q-y5gmyA9K3fSe-18" target="u1Fv49Q-y5gmyA9K3fSe-22">
          <mxGeometry relative="1" as="geometry" />
        </mxCell>
        <mxCell id="o_tCL5fPGXXlUPrpDPPs-8" style="edgeStyle=orthogonalEdgeStyle;rounded=0;orthogonalLoop=1;jettySize=auto;html=1;entryX=0.625;entryY=1;entryDx=0;entryDy=0;entryPerimeter=0;" edge="1" parent="1" source="u1Fv49Q-y5gmyA9K3fSe-18" target="u1Fv49Q-y5gmyA9K3fSe-2">
          <mxGeometry relative="1" as="geometry">
            <mxPoint x="460" y="650" as="targetPoint" />
          </mxGeometry>
        </mxCell>
        <mxCell id="u1Fv49Q-y5gmyA9K3fSe-18" value="EQUIPE MECÂNICA" style="swimlane;fontStyle=0;childLayout=stackLayout;horizontal=1;startSize=26;fillColor=none;horizontalStack=0;resizeParent=1;resizeParentMax=0;resizeLast=0;collapsible=1;marginBottom=0;whiteSpace=wrap;html=1;" vertex="1" parent="1">
          <mxGeometry x="390" y="680" width="140" height="78" as="geometry" />
        </mxCell>
        <mxCell id="u1Fv49Q-y5gmyA9K3fSe-20" value="nome VARCHAR(100)" style="text;strokeColor=none;fillColor=none;align=left;verticalAlign=top;spacingLeft=4;spacingRight=4;overflow=hidden;rotatable=0;points=[[0,0.5],[1,0.5]];portConstraint=eastwest;whiteSpace=wrap;html=1;" vertex="1" parent="u1Fv49Q-y5gmyA9K3fSe-18">
          <mxGeometry y="26" width="140" height="26" as="geometry" />
        </mxCell>
        <mxCell id="u1Fv49Q-y5gmyA9K3fSe-21" value="endereço INT" style="text;strokeColor=none;fillColor=none;align=left;verticalAlign=top;spacingLeft=4;spacingRight=4;overflow=hidden;rotatable=0;points=[[0,0.5],[1,0.5]];portConstraint=eastwest;whiteSpace=wrap;html=1;" vertex="1" parent="u1Fv49Q-y5gmyA9K3fSe-18">
          <mxGeometry y="52" width="140" height="26" as="geometry" />
        </mxCell>
        <mxCell id="u1Fv49Q-y5gmyA9K3fSe-22" value="EXECUÇÃO DE SERVIÇOS" style="swimlane;fontStyle=0;childLayout=stackLayout;horizontal=1;startSize=24;fillColor=none;horizontalStack=0;resizeParent=1;resizeParentMax=0;resizeLast=0;collapsible=1;marginBottom=0;whiteSpace=wrap;html=1;" vertex="1" parent="1">
          <mxGeometry x="345" y="860" width="170" height="20" as="geometry" />
        </mxCell>
        <mxCell id="u1Fv49Q-y5gmyA9K3fSe-26" value="REFERÊNCIA DE MÃO DE OBRA&amp;nbsp;" style="swimlane;fontStyle=0;childLayout=stackLayout;horizontal=1;startSize=30;fillColor=none;horizontalStack=0;resizeParent=1;resizeParentMax=0;resizeLast=0;collapsible=1;marginBottom=0;whiteSpace=wrap;html=1;" vertex="1" parent="1">
          <mxGeometry x="-90" y="750" width="190" height="28" as="geometry" />
        </mxCell>
        <mxCell id="g5kQkEdZW5p_jmDrtVGw-28" value="" style="fontSize=12;html=1;endArrow=ERoneToMany;startArrow=ERmandOne;rounded=0;entryX=0;entryY=0.5;entryDx=0;entryDy=0;" edge="1" parent="1" target="u1Fv49Q-y5gmyA9K3fSe-6">
          <mxGeometry width="100" height="100" relative="1" as="geometry">
            <mxPoint x="430" y="880" as="sourcePoint" />
            <mxPoint x="520" y="920" as="targetPoint" />
            <Array as="points">
              <mxPoint x="430" y="920" />
              <mxPoint x="450" y="920" />
              <mxPoint x="500" y="920" />
            </Array>
          </mxGeometry>
        </mxCell>
        <mxCell id="g5kQkEdZW5p_jmDrtVGw-29" value="" style="fontSize=12;html=1;endArrow=ERoneToMany;startArrow=ERmandOne;rounded=0;entryX=0.457;entryY=1.1;entryDx=0;entryDy=0;entryPerimeter=0;" edge="1" parent="1" target="u1Fv49Q-y5gmyA9K3fSe-14">
          <mxGeometry width="100" height="100" relative="1" as="geometry">
            <mxPoint x="634.5" y="880" as="sourcePoint" />
            <mxPoint x="634.5" y="830" as="targetPoint" />
            <Array as="points">
              <mxPoint x="635" y="852" />
            </Array>
          </mxGeometry>
        </mxCell>
        <mxCell id="g5kQkEdZW5p_jmDrtVGw-39" style="edgeStyle=orthogonalEdgeStyle;rounded=0;orthogonalLoop=1;jettySize=auto;html=1;exitX=0;exitY=0.5;exitDx=0;exitDy=0;entryX=1.021;entryY=-0.154;entryDx=0;entryDy=0;entryPerimeter=0;" edge="1" parent="1" source="u1Fv49Q-y5gmyA9K3fSe-20" target="u1Fv49Q-y5gmyA9K3fSe-11">
          <mxGeometry relative="1" as="geometry" />
        </mxCell>
        <mxCell id="o_tCL5fPGXXlUPrpDPPs-5" value="" style="edgeStyle=entityRelationEdgeStyle;fontSize=12;html=1;endArrow=ERoneToMany;startArrow=ERmandOne;rounded=0;" edge="1" parent="1">
          <mxGeometry width="100" height="100" relative="1" as="geometry">
            <mxPoint x="100" y="760" as="sourcePoint" />
            <mxPoint x="160" y="729" as="targetPoint" />
            <Array as="points">
              <mxPoint x="120" y="810" />
              <mxPoint x="120" y="810" />
              <mxPoint x="80" y="730" />
              <mxPoint x="90" y="760" />
              <mxPoint x="130" y="760" />
              <mxPoint x="100" y="740" />
              <mxPoint x="120" y="765" />
              <mxPoint x="110" y="765" />
              <mxPoint x="110" y="765" />
              <mxPoint x="80" y="760" />
              <mxPoint x="120" y="800" />
              <mxPoint x="160" y="730" />
              <mxPoint x="55" y="770" />
              <mxPoint x="80" y="760" />
              <mxPoint x="80" y="760" />
              <mxPoint x="90" y="770" />
              <mxPoint x="60" y="770" />
            </Array>
          </mxGeometry>
        </mxCell>
      </root>
    </mxGraphModel>
  </diagram>
</mxfile>
